<mxfile host="app.diagrams.net" modified="2024-03-15T02:44:57.008Z" agent="Mozilla/5.0 (Windows NT 10.0; Win64; x64) AppleWebKit/537.36 (KHTML, like Gecko) Chrome/122.0.0.0 Safari/537.36" version="23.1.6" etag="kBDYy4vonhpQhx2jtMp7" type="github">
  <diagram name="PÃ¡gina-1" id="QRRZog6za2BOD_P61J8O">
    <mxGraphModel>
      <root>
        <mxCell id="0" />
        <mxCell id="1" parent="0" />
      </root>
    </mxGraphModel>
  </diagram>
</mxfile>
